# xmcd
#
# Track frame offsets:
#	150
#	11120
#	26497
#	48600
#	64665
#	95079
#	113327
#	139780
#	160392
#	178234
#	193575
#	215542
#	233477
#	251212
#	267972
#
# Disc length: 3726
#
# Revision: 1
# Processed by: cddbd v1.5.1PL0 Copyright (c) Steve Scherf et al.
# Submitted via: dBpowerAMP V4.0
# Normalized: r0:TRMNUM
#
DISCID=d60e8c0f
DTITLE=Updat - Live Allround Music
DYEAR=1900
DGENRE=
TTITLE0=it's so easy
TTITLE1=bad leroy brown
TTITLE2=you've got a friend
TTITLE3=zo ver weg
TTITLE4=country medley
TTITLE5=la isla bonita
TTITLE6=sultans of swing
TTITLE7=run to me
TTITLE8=ik wil altijd bij jou zijn 
TTITLE9=long train running
TTITLE10=europe
TTITLE11=als sterren aan de hemel staan
TTITLE12=zonder jou
TTITLE13=this is my life
TTITLE14=don't it make my brown eyes blue
EXTD=
EXTT0=
EXTT1=
EXTT2=
EXTT3=
EXTT4=
EXTT5=
EXTT6=
EXTT7=
EXTT8=
EXTT9=
EXTT10=
EXTT11=
EXTT12=
EXTT13=
EXTT14=
PLAYORDER=
